<?xml version="1.0" encoding="utf-8"?>
<!-- Generator: Adobe Illustrator 15.0.0, SVG Export Plug-In . SVG Version: 6.00 Build 0)  -->
<!DOCTYPE svg PUBLIC "-//W3C//DTD SVG 1.1//EN" "http://www.w3.org/Graphics/SVG/1.1/DTD/svg11.dtd">
<svg version="1.1" id="Layer_1" xmlns="http://www.w3.org/2000/svg" xmlns:xlink="http://www.w3.org/1999/xlink" x="0px" y="0px"
	 width="1190.55px" height="841.89px" viewBox="0 0 1190.55 841.89" enable-background="new 0 0 1190.55 841.89"
	 xml:space="preserve">
<polygon fill="none" stroke="#000000" stroke-miterlimit="10" points="409.775,179.445 744.775,262.445 906.775,622.445 
	371.775,626.445 "/>
<polygon fill="none" stroke="#FF0000" stroke-miterlimit="10" points="235.15,513.695 247.275,539.195 253.9,551.07 278.025,539.57 
	279.65,535.57 282.275,526.195 285.775,517.535 292.025,509.445 300.775,502.695 291.775,484.707 "/>
<polygon fill="none" stroke="#FF0000" stroke-miterlimit="10" points="223.738,489.695 233.025,509.82 290.025,481.82 
	280.025,460.945 "/>
<polygon fill="none" stroke="#FF0000" stroke-miterlimit="10" points="176.4,552.57 191.775,582.945 250.459,552.82 234.15,522.82 
	"/>
<polygon fill="none" stroke="#FF0000" stroke-miterlimit="10" points="174.9,549.07 233.025,519.298 226.025,504.445 
	219.941,491.195 186.025,508.945 162.906,521.57 "/>
<polygon fill="none" stroke="#FF0000" stroke-miterlimit="10" points="284.689,458.788 291.452,472.94 350.081,443.939 
	344.643,430.833 "/>
<polygon fill="none" stroke="#FF0000" stroke-miterlimit="10" points="293.195,476.632 305.604,500.544 309.926,498.871 
	315.434,497.616 327.006,497.407 336.487,499.777 345.41,503.263 349.175,503.263 372.808,491.272 351.615,447.424 "/>
<polygon fill="none" stroke="#FF0000" stroke-miterlimit="10" points="404.439,400.123 348.245,428.882 376.659,489.252 
	434.101,461.182 418.185,428.193 366.269,455.28 364.771,455.59 364.099,455.047 363.53,454.014 363.556,452.956 364.348,451.896 
	416.738,425.154 "/>
<polygon fill="none" stroke="#FF0000" stroke-miterlimit="10" points="408.275,398.32 419.9,422.695 477.15,394.695 465.15,368.945 
	"/>
<polygon fill="none" stroke="#FF0000" stroke-miterlimit="10" points="421.358,426.82 438.025,459.32 473.525,441.07 477.9,437.424 
	480.525,432.07 483.436,428.016 487.25,424.298 491.643,421.789 478.9,398.445 "/>
<polygon fill="none" stroke="#FF0000" stroke-miterlimit="10" points="468.541,367.105 495.225,420.201 500.021,418.242 
	504.412,417.431 510.356,417.363 518.26,417.957 523.799,415.81 544.672,405.542 514.408,344.475 "/>
<polygon fill="none" stroke="#FF0000" stroke-miterlimit="10" points="517.989,342.516 548.108,403.964 567.442,393.945 
	539.265,331.678 "/>
<polygon fill="none" stroke="#FF0000" stroke-miterlimit="10" points="567.442,318.445 595.775,305.445 626.442,364.945 
	596.609,379.757 "/>
<polygon fill="none" stroke="#FF0000" stroke-miterlimit="10" points="599.609,303.778 629.792,363.278 658.775,348.278 
	640.943,312.945 600.776,302.919 "/>
<polygon fill="none" stroke="#FF0000" stroke-miterlimit="10" points="645.545,309.278 645.545,312.278 662.609,345.945 
	696.609,330.111 707.609,306.53 650.609,290.278 "/>
<polygon fill="none" stroke="#FF0000" stroke-miterlimit="10" points="641.442,308.675 646.275,289.47 607.609,277.97 
	603.885,298.775 "/>
<polygon fill="none" stroke="#FF0000" stroke-miterlimit="10" points="638.68,243.65 630.665,280.34 708.9,302.919 721.319,277.97 
	715.222,277.97 707.207,275.711 "/>
<polygon fill="none" stroke="#FF0000" stroke-miterlimit="10" points="709.775,271.309 716.108,272.278 720.275,272.278 
	723.691,272.278 761.775,177.945 720.108,171.112 685.108,259.278 "/>
<polygon fill="none" stroke="#FF0000" stroke-miterlimit="10" points="661.109,162.778 640.109,238.278 681.609,257.943 
	716.109,170.717 "/>
<polygon fill="none" stroke="#FF0000" stroke-miterlimit="10" points="588.775,215.611 636.275,236.778 656.608,162.314 
	607.275,153.778 "/>
<polygon fill="none" stroke="#FF0000" stroke-miterlimit="10" points="562.108,204.654 585.441,213.62 602.703,153.778 
	575.775,149.445 "/>
<polygon fill="none" stroke="#FF0000" stroke-miterlimit="10" points="510.608,183.778 558.075,203.445 571.775,148.778 
	520.608,142.431 "/>
<polygon fill="none" stroke="#FF0000" stroke-miterlimit="10" points="516.108,141.444 506.941,182.444 457.941,167.444 
	467.525,134.611 "/>
<polygon fill="none" stroke="#FF0000" stroke-miterlimit="10" points="416.017,126.111 408.608,151.278 454.608,166.278 
	463.774,133.778 "/>
<polygon fill="none" stroke="#FF0000" stroke-miterlimit="10" points="352.506,117.104 337.83,120.654 333.108,120.945 
	322.275,118.278 337.274,124.778 348.941,128.445 361.441,132.778 404.941,150.278 411.274,125.278 358.187,117.104 "/>
<polygon fill="none" stroke="#FF0000" stroke-miterlimit="10" points="443.49,168.351 475.101,177.947 505.017,187.204 
	536.515,199.735 556.271,207.863 550.739,218.927 475.326,183.93 "/>
<polygon fill="none" stroke="#FF0000" stroke-miterlimit="10" points="560.333,209.538 558.075,213.62 630.101,249.295 
	622.94,277.97 626.714,279.099 634.843,241.957 600.808,226.264 "/>
<polygon fill="none" stroke="#FF0000" stroke-miterlimit="10" points="558.075,213.62 630.101,249.295 622.94,277.97 
	538.093,253.923 "/>
<polygon fill="none" stroke="#FF0000" stroke-miterlimit="10" points="407.138,156.515 399.688,184.944 395.735,204.023 
	394.381,212.039 448.344,226.94 476.003,235.521 534.256,252.793 549.045,222.425 480.293,190.59 463.359,182.8 433.217,167.447 
	424.411,162.314 "/>
<polygon fill="none" stroke="#FF0000" stroke-miterlimit="10" points="322.275,127.447 305.309,185.507 356.562,201.086 
	371.239,204.924 390.205,211.021 393.592,193.974 403.075,155.025 368.191,141.253 348.661,133.915 333.646,128.722 
	328.339,128.722 "/>
<polygon fill="none" stroke="#FF0000" stroke-miterlimit="10" points="536.732,258.114 538.671,260.575 541.045,264.67 
	565.774,314.944 578.441,308.675 592.108,302.919 598.775,299.611 603.885,276.879 "/>
<polygon fill="none" stroke="#FF0000" stroke-miterlimit="10" points="533.258,261.198 488.177,283.245 516.312,339.02 
	540.003,326.516 561.721,316.479 535.232,262.35 "/>
<polygon fill="none" stroke="#FF0000" stroke-miterlimit="10" points="441.108,307.946 466.775,363.779 512.442,340.779 
	484.442,284.779 "/>
<polygon fill="none" stroke="#FF0000" stroke-miterlimit="10" points="436.962,309.82 404.9,324.632 414.275,344.257 
	415.275,346.882 415.337,349.57 415.025,351.57 413.462,353.757 407.087,357.382 391.4,365.882 406.4,394.757 463.275,365.32 "/>
<polygon fill="none" stroke="#FF0000" stroke-miterlimit="10" points="388.9,332.757 401.025,326.445 409.587,343.695 
	411.087,347.132 411.087,349.32 409.962,351.32 407.837,352.757 389.462,362.07 383.025,349.445 385.212,347.57 387.087,344.882 
	388.275,342.632 389.325,339.763 389.465,336.045 "/>
<polygon fill="none" stroke="#FF0000" stroke-miterlimit="10" points="364.341,345.197 365.994,347.414 368.806,349.32 
	371.775,350.476 375.837,351.07 379.119,350.851 402.747,396.816 373.635,411.484 347.108,354.612 "/>
<polygon fill="none" stroke="#FF0000" stroke-miterlimit="10" points="317.872,368.04 342.721,356.619 369.938,413.724 
	346.648,425.256 "/>
<polygon fill="none" stroke="#FF0000" stroke-miterlimit="10" points="287.751,383.156 313.504,369.383 342.721,427.445 
	315.855,440.374 "/>
<polygon fill="none" stroke="#FF0000" stroke-miterlimit="10" points="255.93,399.018 284.045,385.284 312.161,441.717 
	282.824,454.93 "/>
<polygon fill="none" stroke="#FF0000" stroke-miterlimit="10" points="223.032,415.965 251.154,401.409 278.569,457.171 
	251.584,471.28 "/>
<polygon fill="none" stroke="#FF0000" stroke-miterlimit="10" points="193.695,429.627 219.448,417.87 247.882,473.072 
	221.8,486.06 "/>
<polygon fill="none" stroke="#FF0000" stroke-miterlimit="10" points="163.911,445.863 190,431.531 218.329,487.851 
	191.232,501.624 "/>
<polygon fill="none" stroke="#FF0000" stroke-miterlimit="10" points="133.007,460.945 160.216,447.78 187.649,503.639 
	161.112,517.888 "/>
<polygon fill="none" stroke="#FF0000" stroke-miterlimit="10" points="467.525,237.945 486.275,279.778 531.442,257.82 
	531.442,256.445 "/>
<polygon fill="none" stroke="#FF0000" stroke-miterlimit="10" points="447.025,230.944 460.941,235.277 482.441,281.611 
	438.441,304.611 412.275,251.444 "/>
<polygon fill="none" stroke="#FF0000" stroke-miterlimit="10" points="408.442,253.778 434.942,305.945 401.927,321.343 
	386.875,329.184 384.774,326.104 381.134,324.002 377.843,322.882 374.062,322.812 371.052,323.724 350.609,281.778 385.15,263.611 
	"/>
<polygon fill="none" stroke="#FF0000" stroke-miterlimit="10" points="344.797,350.817 361.95,341.926 361.04,338.705 
	361.25,333.875 363.141,329.394 365.171,327.223 367.411,325.473 345.775,282.945 317,297.195 "/>
<polygon fill="none" stroke="#FF0000" stroke-miterlimit="10" points="315.917,364.795 341.035,352.73 314.4,299.313 
	289.264,311.817 "/>
<polygon fill="none" stroke="#FF0000" stroke-miterlimit="10" points="285.521,379.822 312.161,366.55 285.973,313.353 
	258.88,325.856 "/>
<polygon fill="none" stroke="#FF0000" stroke-miterlimit="10" points="253.616,395.617 282.244,381.687 255.152,327.722 
	227.95,341.213 "/>
<polygon fill="none" stroke="#FF0000" stroke-miterlimit="10" points="223.165,343.517 196.142,358.214 221.479,412.07 
	249.339,397.92 "/>
<polygon fill="none" stroke="#FF0000" stroke-miterlimit="10" points="261.074,252.808 287.115,307.979 312.955,295.804 
	286.411,240.413 "/>
<polygon fill="none" stroke="#FF0000" stroke-miterlimit="10" points="289.775,238.945 316.248,294.269 345.203,279.461 
	317.489,224.29 "/>
<polygon fill="none" stroke="#FF0000" stroke-miterlimit="10" points="321.401,222.535 354.192,204.654 358.025,205.445 
	382.057,260.486 348.823,277.926 "/>
<polygon fill="none" stroke="#FF0000" stroke-miterlimit="10" points="363.52,207.179 385.786,258.95 406.845,249.737 
	389.625,214.967 "/>
<polygon fill="none" stroke="#FF0000" stroke-miterlimit="10" points="395,216.502 410.355,247.543 418.73,242.168 441.726,229.335 
	"/>
<polygon fill="none" stroke="#FF0000" stroke-miterlimit="10" points="306.375,190.068 349.59,203.34 319.756,218.696 "/>
<polygon fill="none" stroke="#FF0000" stroke-miterlimit="10" points="518.937,422.698 514.816,422.833 510.696,422.427 
	505.562,422.36 501.306,422.765 497.442,424.386 502.387,434.924 504.684,434.249 507.588,434.114 510.966,434.452 513.6,435.397 
	516.525,437.424 522.382,435.33 529.475,433.168 542.816,426.345 602.703,396.489 644.001,374.705 686.005,353.719 693.31,337.084 
	527.043,419.793 "/>
<polygon fill="none" stroke="#FF0000" stroke-miterlimit="10" points="515.126,461.521 517.863,459.119 520.377,455.543 
	523.394,452.471 530.545,445.711 539.092,440.459 680.181,367.821 671.791,385.582 555.962,442.508 537.865,451.063 
	533.282,455.599 531.271,459.454 529.427,462.862 527.249,466.158 523.059,469.901 520.601,471.353 "/>
<polygon fill="none" stroke="#FF0000" stroke-miterlimit="10" points="347.999,508.389 343.867,507.868 336.686,504.779 
	330.709,502.932 324.611,502.011 317.672,502.171 312.256,503.254 307.803,504.98 312.898,515.65 316.789,514.808 320.881,514.125 
	324.411,513.925 329.465,514.367 335.202,516.154 339.655,519.3 344.348,523.874 492.577,448.335 492.577,446.484 492.958,444.306 
	493.938,442.127 495.027,440.277 496.661,438.534 498.893,436.792 493.775,426.113 489.909,428.841 487.022,431.673 
	484.953,434.232 483.265,437.424 481.196,441.093 478.201,444.07 351.368,507.506 "/>
<polygon fill="none" stroke="#FF0000" stroke-miterlimit="10" points="350.567,538.325 350.498,542.16 350.08,545.714 
	349.243,549.34 347.779,553.244 345.757,556.171 343.317,559.169 340.18,562.171 345.478,572.554 348.336,570.463 351.265,567.326 
	353.774,564.12 356.145,560.494 357.678,556.451 360.858,547.318 362.507,541.052 364.858,538.883 491.168,475.904 496.995,474.655 
	501.366,474.994 504.973,475.626 509.274,475.834 513.089,475.418 516.904,473.128 511.286,463.139 509.343,463.625 
	506.152,463.556 503.239,463.139 500.949,462.515 492.07,463.487 483.26,466.955 468.207,475.28 "/>
<polygon fill="none" stroke="#FF0000" stroke-miterlimit="10" points="319.757,519.646 314.946,520.971 310.903,523.55 
	307.348,526.966 304.838,530.243 303.522,534.243 302.607,538.121 302.607,542.583 303.095,546.696 305.117,551.528 
	307.803,555.549 311.321,558.546 316.132,560.987 321.848,562.171 328.123,561.684 333.211,560.01 337.743,556.943 340.95,553.527 
	343.529,548.852 344.784,544.186 345.063,539.445 344.226,534.774 342.483,530.522 340.601,527.873 338.301,524.875 
	335.094,522.366 331.608,520.762 327.983,519.786 324.428,519.298 "/>
<polygon fill="none" stroke="#FF0000" stroke-miterlimit="10" points="294.605,574.126 299.955,574.02 305.442,575.902 
	313.271,578.831 321.218,579.946 328.468,579.667 335.3,577.576 330.211,566.77 324.355,567.746 319.197,567.467 313.968,566.142 
	309.091,563.703 305.045,560.565 303.093,558.125 295.562,560.076 203.775,606.445 209.118,616.612 "/>
<polygon fill="none" stroke="#FF0000" stroke-miterlimit="10" points="297.658,547.043 297.03,542.652 297.169,537.841 
	298.285,532.447 300.237,528.012 303.304,523.202 306.163,520.274 309.091,518.321 303.235,507.237 298.006,511.141 294.59,514.417 
	289.919,520.065 287.41,525.223 285.736,531.498 284.691,535.959 282.53,541.466 279.393,543.836 193.573,587.337 198.383,596.75 
	"/>
<polygon fill="none" stroke="#FF0000" stroke-miterlimit="10" points="273.883,590.331 294.379,579.734 298.631,578.479 
	302.187,578.479 305.394,579.456 307.973,581.128 311.11,583.847 338.02,637.738 304.069,654.33 "/>
<polygon fill="none" stroke="#FF0000" stroke-miterlimit="10" points="315.781,584.193 323.31,584.959 328.05,584.959 
	332.582,583.984 337.532,582.032 359.282,627.209 341.436,636.063 "/>
<polygon fill="none" stroke="#FF0000" stroke-miterlimit="10" points="347.641,576.942 355.379,592.836 373.435,584.47 
	374.271,582.728 361.583,559.165 359.771,564.115 356.634,568.297 354.264,571.156 350.499,574.501 "/>
<polygon fill="none" stroke="#FF0000" stroke-miterlimit="10" points="357.122,596.252 371.775,589.348 375.061,587.793 
	377.356,586.306 378.108,584.329 377.897,581.385 375.901,577.906 363.537,554.283 367.231,543.197 374.69,539.92 404.876,604.339 
	369.113,622.326 "/>
<polygon fill="none" stroke="#FF0000" stroke-miterlimit="10" points="378.317,538.112 392.469,530.579 424.119,594.088 
	408.433,602.25 "/>
<polygon fill="none" stroke="#FF0000" stroke-miterlimit="10" points="414.605,567.006 427.63,592.169 546.122,532.447 
	528.456,497.218 501.194,512.063 504.263,517.847 504.422,519.223 502.854,520.386 501.3,520.44 500.207,518.941 483.801,485.048 
	418.276,517.946 435.612,552.042 472.142,534.308 473.771,533.61 475.246,533.862 476.08,535.57 475.479,536.87 474.055,537.555 "/>
<polygon fill="none" stroke="#FF0000" stroke-miterlimit="10" points="412.755,563.205 431.857,553.932 414.149,519.703 
	396.164,528.975 "/>
<polygon fill="none" stroke="#FF0000" stroke-miterlimit="10" points="487.491,483.256 492.486,480.621 497.688,479.441 
	503.1,480.621 508.719,480.898 513.228,480.343 519.263,477.708 526.894,493.524 499.562,508.715 "/>
<polygon fill="none" stroke="#FF0000" stroke-miterlimit="10" points="522.779,475.675 549.775,530.57 596.4,507.445 
	563.525,444.07 540.215,455.29 537.053,458.836 534.36,464.435 530.6,469.478 525.941,473.751 "/>
<polygon fill="none" stroke="#FF0000" stroke-miterlimit="10" points="567.995,442.112 600.275,505.445 625.275,492.753 
	636.775,467.945 612.941,419.587 "/>
<polygon fill="none" stroke="#FF0000" stroke-miterlimit="10" points="617.276,417.945 638.608,463.362 668.275,393.195 "/>
<polygon fill="none" stroke="#FF0000" stroke-miterlimit="10" points="391.16,665.553 445.235,639.119 425.492,598.097 
	370.978,625.957 "/>
<polygon fill="none" stroke="#FF0000" stroke-miterlimit="10" points="429.33,596.01 449.073,637.144 568.191,575.938 
	547.79,536.013 482.088,568.589 "/>
<polygon fill="none" stroke="#FF0000" stroke-miterlimit="10" points="551.519,534.147 571.591,574.072 595.775,561.788 
	607.677,534.805 598.135,510.891 "/>
<polygon fill="none" stroke="#FF0000" stroke-miterlimit="10" points="601.754,509.136 609.981,529.538 623.273,498.058 "/>
<polygon fill="none" stroke="#FF0000" stroke-miterlimit="10" points="573.236,577.582 581.792,595.79 594.516,566.833 "/>
<polygon fill="none" stroke="#FF0000" stroke-miterlimit="10" points="569.836,579.45 579.609,600.29 566.545,631.826 
	471.779,680.799 450.828,640.654 "/>
<polygon fill="none" stroke="#FF0000" stroke-miterlimit="10" points="393.134,669.282 446.774,642.519 467.939,682.444 
	412.987,708.44 "/>
<polygon fill="none" stroke="#FF0000" stroke-miterlimit="10" points="414.184,712.498 469.574,686.173 479.556,708.44 
	416.487,724.563 414.184,717.982 "/>
<polygon fill="none" stroke="#FF0000" stroke-miterlimit="10" points="473.521,684.204 483.831,707.457 508.071,701.314 
	509.278,694.733 512.459,687.451 516.439,682.449 521.453,678.5 528.363,674.99 534.944,673.125 541.197,672.906 546.242,673.568 
	564.121,637.369 "/>
<polygon fill="none" stroke="#FF0000" stroke-miterlimit="10" points="423.177,745.184 433.158,782.586 471.607,772.783 
	515.971,727.196 513.884,724.563 "/>
<polygon fill="none" stroke="#FF0000" stroke-miterlimit="10" points="508.293,705.118 508.184,708.44 508.557,711.504 
	509.245,714.234 510.377,717.653 511.913,721.406 488.331,726.098 488.152,723.582 486.274,721.93 484.382,722.041 477.362,723.466 
	435.462,733.566 420.875,735.861 420.326,734.326 451.477,727.085 462.107,722.785 468.368,720.49 469.574,718.732 469.574,716.666 
	467.939,715.678 "/>
<polygon fill="none" stroke="#FF0000" stroke-miterlimit="10" points="590.689,625.302 580.475,630.897 558.854,679.486 
	562.583,681.57 566.939,684.97 570.151,688.918 572.564,692.757 574.319,697.583 576.074,696.816 620.058,688.151 612.773,666.282 
	"/>
<polygon fill="none" stroke="#FF0000" stroke-miterlimit="10" points="537.686,678.936 531.272,680.283 525.105,682.775 
	519.808,687.451 515.218,694.292 513.884,699.667 513.884,706.482 515.218,714.145 518.272,720.616 522.769,726.21 529.459,730.488 
	535.712,732.681 546.571,733.281 553.59,730.926 560.939,726.54 565.766,720.397 569.166,712.17 569.495,705.118 568.727,698.459 
	566.204,693.415 562.311,688.588 557.21,684.639 551.507,681.349 544.925,679.484 "/>
<polygon fill="none" stroke="#FF0000" stroke-miterlimit="10" points="486.274,773.447 516.628,774.447 527.926,736.19 
	524.745,734.326 "/>
<polygon fill="none" stroke="#FF0000" stroke-miterlimit="10" points="538.343,742.113 529.13,775.018 573.224,764.927 
	568.836,744.855 569.056,743.1 570.481,742.113 572.346,742.88 572.831,744.4 577.062,764.269 605.251,757.25 601.083,741.564 
	600.316,738.603 600.105,736.114 602.071,735.447 603.278,736.628 604.593,740.577 608.981,756.042 636.073,749.245 
	622.033,692.114 577.274,701.447 575.307,702.407 575.307,709.866 573.662,717.324 571.358,722.589 567.849,727.305 
	563.242,731.802 557.867,735.447 551.834,737.616 546.24,738.712 540.646,738.932 "/>
<polygon fill="none" stroke="#FF0000" stroke-miterlimit="10" points="626.089,691.117 640.128,748.373 692.558,735.649 
	677.641,677.736 "/>
<polygon fill="none" stroke="#FF0000" stroke-miterlimit="10" points="617.606,665.949 620.181,673.568 634.605,669.291 
	670.106,661.722 661.939,645.949 643.325,653.386 632.247,658.76 "/>
<polygon fill="none" stroke="#FF0000" stroke-miterlimit="10" points="594.516,623.329 615.354,662.486 637.95,651.737 
	618.754,612.25 "/>
<polygon fill="none" stroke="#FF0000" stroke-miterlimit="10" points="622.157,610.714 642.008,649.762 660.655,641.975 
	640.472,599.856 "/>
<polygon fill="none" stroke="#FF0000" stroke-miterlimit="10" points="588.373,609.939 592.54,619.709 618.646,607.964 
	638.609,595.79 618.773,556.452 609.323,560.141 "/>
<polygon fill="none" stroke="#FF0000" stroke-miterlimit="10" points="681.699,676.533 696.851,734.774 722.502,729.181 
	748.059,723.587 733.361,662.712 704.733,669.732 701.991,669.951 "/>
<polygon fill="none" stroke="#FF0000" stroke-miterlimit="10" points="666.249,644.28 674.365,660.842 727.453,649.762 
	712.645,620.369 "/>
<polygon fill="none" stroke="#FF0000" stroke-miterlimit="10" points="664.384,640.548 711.219,616.528 690.16,575.725 
	644.311,597.772 "/>
<polygon fill="none" stroke="#FF0000" stroke-miterlimit="10" points="622.157,554.331 642.449,594.037 688.407,572.099 
	667.566,531.296 "/>
<polygon fill="none" stroke="#FF0000" stroke-miterlimit="10" points="639.275,490.49 616.233,542.482 620.401,550.377 
	666.03,527.563 646.397,487.32 "/>
<polygon fill="none" stroke="#FF0000" stroke-miterlimit="10" points="737.64,661.724 752.228,722.928 782.282,715.689 
	768.461,654.92 "/>
<polygon fill="none" stroke="#FF0000" stroke-miterlimit="10" points="772.52,653.607 786.23,714.373 815.626,707.572 
	802.463,645.709 "/>
<polygon fill="none" stroke="#FF0000" stroke-miterlimit="10" points="717.033,618.504 731.732,649.326 799.079,632.763 
	776.704,586.476 "/>
<polygon fill="none" stroke="#FF0000" stroke-miterlimit="10" points="693.999,574.077 715.168,614.441 774.948,582.301 
	755.534,542.595 "/>
<polygon fill="none" stroke="#FF0000" stroke-miterlimit="10" points="671.734,529.538 692.135,570.234 753.559,539.083 
	733.486,498.058 "/>
<polygon fill="none" stroke="#FF0000" stroke-miterlimit="10" points="650.454,485.334 669.649,525.48 731.731,494.548 
	712.097,454.075 "/>
<polygon fill="none" stroke="#FF0000" stroke-miterlimit="10" points="645.108,475.445 648.275,481.611 710.441,450.611 
	685.108,402.945 681.608,392.444 680.181,392.444 "/>
<polygon fill="none" stroke="#FF0000" stroke-miterlimit="10" points="806.414,644.721 819.685,706.802 861.695,697.37 
	844.913,634.411 "/>
<polygon fill="none" stroke="#FF0000" stroke-miterlimit="10" points="849.195,633.366 863.235,630.685 900.637,623.775 
	907.613,658.765 887.585,663.372 884.184,657.558 879.578,653.281 874.751,650.539 868.28,649.442 860.822,651.197 854.899,654.158 
	"/>
<polygon fill="none" stroke="#FF0000" stroke-miterlimit="10" points="856.105,658.545 862.113,682.127 868.17,680.702 
	874.532,676.863 879.907,672.475 883.965,666.333 883.087,662.823 879.029,657.887 873.435,654.707 867.403,654.048 861.26,655.913 
	"/>
<polygon fill="none" stroke="#FF0000" stroke-miterlimit="10" points="863.235,686.406 865.867,696.167 911.935,683.993 
	908.644,662.823 887.696,667.591 886.128,671.763 883.658,675.523 880.236,679.496 875.444,682.127 869.376,684.87 "/>
<polygon fill="none" stroke="#FF0000" stroke-miterlimit="10" points="904.254,623.113 916.104,682.785 946.487,675.875 
	958.662,672.583 964.584,672.365 969.52,604.47 955.041,607.98 "/>
<polygon fill="none" stroke="#FF0000" stroke-miterlimit="10" points="975.333,603.813 1013.833,606.335 1009.78,668.279 
	1009.116,671.597 1006.922,674.23 1003.851,675.327 991.789,674.778 969.963,672.036 "/>
<polygon fill="none" stroke="#FF0000" stroke-miterlimit="10" points="1016.115,590.778 1017.948,596.445 1011.781,598.612 
	975.443,598.612 975.443,597.121 984.281,596.445 "/>
<polygon fill="none" stroke="#FF0000" stroke-miterlimit="10" points="980.491,583.779 983.233,584.835 992.117,584.287 
	1005.282,579.279 1029.448,516.779 1009.448,516.779 "/>
<polygon fill="none" stroke="#FF0000" stroke-miterlimit="10" points="912.15,560.82 897.025,609.945 913.025,605.945 
	971.275,592.57 973.525,585.82 "/>
<polygon fill="none" stroke="#FF0000" stroke-miterlimit="10" points="1000.4,515.07 975.525,582.445 913.775,557.07 924.9,527.82 
	941.9,491.32 "/>
<polygon fill="none" stroke="#FF0000" stroke-miterlimit="10" points="843.275,621.695 892.9,610.82 907.613,558.947 
	869.025,542.57 851.033,593.945 "/>
<polygon fill="none" stroke="#FF0000" stroke-miterlimit="10" points="870.4,538.82 909.9,555.445 922.775,523.195 938.025,489.695 
	895.15,471.695 877.4,517.445 "/>
<polygon fill="none" stroke="#FF0000" stroke-miterlimit="10" points="780.392,584.482 803.07,631.448 820.079,625.778 
	838.863,622.953 839.021,620.297 848.117,588.947 834.042,557.996 "/>
<polygon fill="none" stroke="#FF0000" stroke-miterlimit="10" points="837.9,556.07 850.025,584.195 864.4,543.945 "/>
<polygon fill="none" stroke="#FF0000" stroke-miterlimit="10" points="759.321,540.903 778.87,580.696 832.349,554.443 
	813.055,513.401 "/>
<polygon fill="none" stroke="#FF0000" stroke-miterlimit="10" points="816.775,511.445 835.9,552.695 866.275,538.445 
	874.65,513.113 889.282,475.281 888.275,474.57 857.15,490.695 "/>
<polygon fill="none" stroke="#FF0000" stroke-miterlimit="10" points="737.235,496.225 757.544,537.012 811.364,509.679 
	789.87,469.146 "/>
<polygon fill="none" stroke="#FF0000" stroke-miterlimit="10" points="793.9,467.57 815.025,507.82 887.025,470.948 891.15,470.948 
	896.204,455.096 848.525,441.32 "/>
<polygon fill="none" stroke="#FF0000" stroke-miterlimit="10" points="715.995,452.304 735.542,492.753 788.177,465.674 
	767.276,426.41 "/>
<polygon fill="none" stroke="#FF0000" stroke-miterlimit="10" points="773.15,419.695 770.525,423.695 791.9,464.07 842.65,439.82 
	"/>
<polygon fill="none" stroke="#FF0000" stroke-miterlimit="10" points="691.292,393.195 686.65,393.195 688.275,401.445 
	714.4,449.07 766.775,422.445 768.775,418.695 "/>
<polygon fill="none" stroke="#FF0000" stroke-miterlimit="10" points="870.15,402.195 858.65,440.32 897.65,451.195 909.4,415.195 
	"/>
<polygon fill="none" stroke="#FF0000" stroke-miterlimit="10" points="829.025,389.945 818.775,429.07 855.15,439.195 
	866.525,400.82 "/>
<polygon fill="none" stroke="#FF0000" stroke-miterlimit="10" points="785.65,376.945 774.775,416.07 814.9,427.445 824.785,388.82 
	"/>
<polygon fill="none" stroke="#FF0000" stroke-miterlimit="10" points="781.285,375.281 770.775,414.82 735.025,403.57 
	691.9,389.445 682.4,388.32 687.275,378.82 698.525,372.945 712.15,363.695 718.284,360.382 729.15,354.82 735.775,351.811 
	740.65,349.195 747.15,344.695 742.775,352.695 740.65,356.57 741.4,360.382 746.275,364.445 755.775,367.57 768.525,371.333 "/>
<polygon fill="none" stroke="#FF0000" stroke-miterlimit="10" points="786.775,372.945 826.525,384.945 836.9,346.32 
	814.275,338.945 798.4,335.82 "/>
<polygon fill="none" stroke="#FF0000" stroke-miterlimit="10" points="749.025,361.07 783.025,371.945 794.775,334.698 
	781.285,331.678 773.525,332.495 765.4,333.82 759.705,336.28 755.15,339.552 752.275,342.921 749.275,349.445 744.944,356.945 
	744.944,358.07 "/>
<polygon fill="none" stroke="#FF0000" stroke-miterlimit="10" points="777.995,324.932 783.3,327.755 814.346,335.093 
	842.231,322.786 830.716,298.29 "/>
<polygon fill="none" stroke="#FF0000" stroke-miterlimit="10" points="696.169,361.376 691.292,371.333 696.938,368.284 
	704.011,363.317 710.033,359.114 719.742,354.286 716.243,354.286 704.011,357.672 "/>
<polygon fill="none" stroke="#FF0000" stroke-miterlimit="10" points="700.323,353.719 707.661,351.235 715.676,348.864 
	722.703,348.751 728.321,346.945 731.255,345.139 740.513,336.28 752.028,327.415 759.705,322.786 749.784,325.496 742.88,326.286 
	730.804,331.14 725.053,334.28 718.047,338.945 709.806,346.606 701.791,350.479 "/>
<polygon fill="none" stroke="#FF0000" stroke-miterlimit="10" points="711.951,330.947 705.742,342.921 710.257,339.494 
	714.883,335.091 718.951,331.678 723.667,328.769 729.111,325.721 735.515,323.598 739.664,322.786 735.515,323.598 724.9,326.625 
	"/>
<polygon fill="none" stroke="#FF0000" stroke-miterlimit="10" points="720.951,310.947 714.883,324.932 721.319,322.561 
	732.451,319.061 732.451,316.239 731.117,313.642 "/>
<polygon fill="none" stroke="#FF0000" stroke-miterlimit="10" points="734.638,306.531 745.086,308.645 757.316,311.612 
	774.263,302.919 772.344,298.967 733.509,282.947 727.638,296.371 727.638,301.79 729.448,304.386 "/>
<polygon fill="none" stroke="#FF0000" stroke-miterlimit="10" points="736.783,274.695 733.509,282.947 772.344,298.967 
	774.263,302.919 821.118,276.281 800.342,239.698 "/>
<polygon fill="none" stroke="#FF0000" stroke-miterlimit="10" points="738.702,269.163 798.283,235.972 774.601,182.349 "/>
<polygon fill="none" stroke="#FF0000" stroke-miterlimit="10" points="726.951,277.744 714.425,304.273 717.501,305.402 
	729.898,277.292 "/>
<polygon fill="none" stroke="#FF0000" stroke-miterlimit="10" points="729.448,271.319 732.044,271.319 769.637,180.091 
	766.815,179.445 "/>
<polygon fill="none" stroke="#FF0000" stroke-miterlimit="10" points="722.162,307.207 727.638,308.675 724.976,307.207 
	723.576,304.385 "/>
<polygon fill="none" stroke="#FF0000" stroke-miterlimit="10" points="742.88,313.078 749.784,315.561 750.951,314.884 "/>
<polygon fill="none" stroke="#FF0000" stroke-miterlimit="10" points="736.446,315.561 736.446,317.932 742.88,317.002 "/>
<polygon fill="none" stroke="#FF0000" stroke-miterlimit="10" points="756.765,317.002 758.345,317.932 824.846,282.947 
	824.163,281.92 "/>
<polygon fill="none" stroke="#FF0000" stroke-miterlimit="10" points="712.451,308.223 715.676,309.352 708.225,326.625 
	702.867,328.205 "/>
<polygon fill="none" stroke="#FF0000" stroke-miterlimit="10" points="700.548,334.28 705.177,332.495 697.726,345.929 
	694.284,347.947 "/>
<polygon fill="none" stroke="#FF0000" stroke-miterlimit="10" points="771.673,316.013 828.007,288.693 827.33,287.564 "/>
<rect x="768.834" y="307.376" transform="matrix(0.8941 -0.4479 0.4479 0.8941 -52.8362 391.3279)" fill="none" stroke="#FF0000" stroke-miterlimit="10" width="64.271" height="0"/>
<polygon fill="none" stroke="#FF0000" stroke-miterlimit="10" points="842.231,327.304 819.991,336.787 837.941,342.093 "/>
<polygon fill="none" stroke="#FF0000" stroke-miterlimit="10" points="758.465,328.997 766.029,324.932 767.618,324.932 "/>
<polygon fill="none" stroke="#FF0000" stroke-miterlimit="10" points="768.287,328.997 776.416,328.205 773.809,326.964 "/>
<polygon fill="none" stroke="#FF0000" stroke-miterlimit="10" points="750.224,335.093 739.664,344.012 744.127,341.189 "/>
<polygon fill="none" stroke="#FF0000" stroke-miterlimit="10" points="705.742,285.38 704.785,288.489 707.239,289.47 
	708.547,286.198 "/>
<path fill="none" stroke="#FF0000" stroke-miterlimit="10" d="M846.895,612.714"/>
<polygon fill="none" stroke="#FF0000" stroke-miterlimit="10" points="520.017,441.884 520.76,443.505 521.166,444.946 
	521.436,447.018 526.502,441.884 536.095,436.075 683.087,360.91 536.095,436.075 530.623,438.101 "/>
<polygon fill="none" stroke="#FF0000" stroke-miterlimit="10" points="542.715,330.111 570.984,391.778 593.275,381.278 
	563.608,319.778 "/>
<polygon fill="none" stroke="#FF0000" stroke-miterlimit="10" points="690.154,356.701 689.729,357.907 692.707,356.134 
	693.771,354.286 "/>
<polygon fill="none" stroke="#FF0000" stroke-miterlimit="10" points="679.147,381.938 689.09,364.005 687.247,364.927 "/>
<polygon fill="none" stroke="#FF0000" stroke-miterlimit="10" points="642.775,480.279 640.943,485.779 644.276,483.779 "/>
<polygon fill="none" stroke="#FF0000" stroke-miterlimit="10" points="347.108,528.28 348.245,530.57 349.108,532.447 
	436.275,487.309 480.608,461.78 489.775,458.447 495.608,457.78 493.941,455.613 493.108,453.447 "/>
<polygon fill="none" stroke="#FF0000" stroke-miterlimit="10" points="200.963,601.56 294.238,554.5 299.247,551.994 
	299.955,553.385 294.168,554.989 "/>
<polygon fill="none" stroke="#FF0000" stroke-miterlimit="10" points="335.649,564.958 340.459,575.344 340.459,575.344 "/>
<polygon fill="none" stroke="#FF0000" stroke-miterlimit="10" points="342.69,579.732 342.69,579.732 364.093,624.767 "/>
<polygon fill="none" stroke="#FF0000" stroke-miterlimit="10" points="498.893,444.07 498.314,445.592 498.037,447.018 
	498.037,448.367 498.037,450.101 498.465,451.974 498.893,453.447 499.91,454.819 501.089,456.067 503.101,457.247 505.32,458.009 
	507.54,458.009 509.621,458.009 511.702,456.969 513.506,455.651 515.126,453.917 515.795,452.113 516.35,450.24 516.35,448.297 
	516.003,446.216 515.126,444.07 514.13,442.609 512.535,441.222 510.523,440.32 508.789,439.904 506.528,439.739 504.28,439.904 
	502.615,440.667 501.297,441.43 499.979,442.47 "/>
<polygon fill="none" stroke="#FF0000" stroke-miterlimit="10" points="366.011,339.475 372.662,336.115 369.336,329.184 
	367.761,330.304 366.641,331.914 365.731,334.015 365.381,336.325 365.381,337.655 "/>
<polygon fill="none" stroke="#FF0000" stroke-miterlimit="10" points="372.662,327.783 376.093,334.33 383.025,330.654 
	381.764,328.695 379.453,327.363 377.353,326.733 374.928,326.733 "/>
<polygon fill="none" stroke="#FF0000" stroke-miterlimit="10" points="367.971,343.116 374.132,340.036 377.283,346.267 
	374.928,346.967 372.662,346.967 370.842,345.862 369.021,344.656 "/>
<polygon fill="none" stroke="#FF0000" stroke-miterlimit="10" points="377.843,338.285 381.134,345.197 383.025,344.026 
	384.354,341.741 385.125,339.475 385.544,336.815 384.704,334.33 "/>
<polygon fill="none" stroke="#FF0000" stroke-miterlimit="10" points="614.369,545.443 616.671,550.377 616.233,553.779 
	610.859,556.452 "/>
<polygon fill="none" stroke="#FF0000" stroke-miterlimit="10" points="581.352,625.742 585.849,614.664 588.373,621.683 "/>
<polygon fill="none" stroke="#FF0000" stroke-miterlimit="10" points="734.034,654.262 735.569,656.278 801.49,640.548 
	800.832,637.59 766.062,646.934 "/>
<polygon fill="none" stroke="#FF0000" stroke-miterlimit="10" points="621.277,677.186 624.458,687.058 627.106,686.291 
	626.212,684.425 627.638,682.123 731.949,657.663 729.646,654.92 718.677,656.278 717.91,658.101 715.107,659.758 678.313,667.424 
	627.106,679.27 625.006,679.161 623.47,677.955 622.922,676.418 "/>
<polygon fill="none" stroke="#FF0000" stroke-miterlimit="10" points="804.888,636.711 805.328,639.234 843.275,629.692 
	841.962,627.498 822.219,630.789 "/>
<polygon fill="none" stroke="#FF0000" stroke-miterlimit="10" points="846.129,626.445 846.895,628.266 901.411,618.614 
	969.963,598.612 900.971,614.117 867.956,621.695 "/>
<polygon fill="none" stroke="#FF0000" stroke-miterlimit="10" points="978.513,587.797 977.307,589.881 977.307,591.965 
	982.901,591.965 1005.715,586.152 1004.969,584.177 986.521,589.771 982.353,589.662 "/>
<polygon fill="none" stroke="#FF0000" stroke-miterlimit="10" points="584.863,602.155 584.863,602.155 601.304,564.422 "/>
<polygon fill="none" stroke="#FF0000" stroke-miterlimit="10" points="574.211,628.37 575.638,628.37 582.657,607.531 "/>
<polygon fill="none" stroke="#FF0000" stroke-miterlimit="10" points="551.507,675.208 554.14,676.525 573.115,633.637 
	571.25,634.406 "/>
<polygon fill="none" stroke="#FF0000" stroke-miterlimit="10" points="532.861,737.397 534.617,737.945 532.094,741.894 
	522.99,774.447 "/>
<polygon fill="none" stroke="#FF0000" stroke-miterlimit="10" points="519.261,730.377 520.688,731.583 480.981,773.044 "/>
<polygon fill="none" stroke="#FF0000" stroke-miterlimit="10" points="417.803,728.292 418.461,729.389 445.005,722.785 
	464.858,716.227 "/>
<polygon fill="none" stroke="#FF0000" stroke-miterlimit="10" points="603.775,558.261 603.775,558.261 610.859,541.75 "/>
<polygon fill="none" stroke="#FF0000" stroke-miterlimit="10" points="612.513,536.013 631.812,493.931 631.812,493.931 "/>
<polygon fill="none" stroke="#FF0000" stroke-miterlimit="10" points="633.526,488.947 633.526,488.947 639.275,474.928 "/>
<polygon fill="none" stroke="#FF0000" stroke-miterlimit="10" points="642.775,467.089 642.775,467.089 674.802,392.444 "/>
<polygon fill="none" stroke="#FF0000" stroke-miterlimit="10" points="234.15,609.445 265.65,673.32 300.275,655.945 281.65,618.57 
	256.525,631.445 255.025,631.945 254.15,631.445 253.4,630.57 253.65,628.945 255.275,627.82 280.025,615.445 269.525,592.445 "/>
<polygon fill="none" stroke="#FF0000" stroke-miterlimit="10" points="305.9,657.945 326.025,697.195 380.775,670.945 
	360.775,630.695 "/>
<polygon fill="none" stroke="#FF0000" stroke-miterlimit="10" points="382.525,674.57 327.9,701.07 346.9,741.695 364.65,738.57 
	365.4,735.695 367.775,732.57 371.4,729.32 378.025,725.82 402.4,713.57 "/>
<polygon fill="none" stroke="#FF0000" stroke-miterlimit="10" points="369.775,737.195 401.275,731.07 411.275,725.82 
	409.4,719.695 404.775,716.945 376.65,730.57 373.15,732.945 370.775,734.695 "/>
<polygon fill="none" stroke="#FF0000" stroke-miterlimit="10" points="348.525,747.195 349.4,751.445 414.775,737.07 
	414.275,735.195 400.15,735.945 367.775,742.32 "/>
<polygon fill="none" stroke="#FF0000" stroke-miterlimit="10" points="349.15,756.945 349.15,756.945 416.4,742.07 "/>
<polygon fill="none" stroke="#FF0000" stroke-miterlimit="10" points="349.4,761.07 417.4,746.695 426.9,782.945 358.4,803.445 "/>
<polygon fill="none" stroke="#FF0000" stroke-miterlimit="10" points="365.942,628.446 385.775,667.946 385.775,667.946 "/>
<polygon fill="none" stroke="#FF0000" stroke-miterlimit="10" points="388.108,671.946 407.608,710.779 407.608,710.779 "/>
</svg>
